<?xml version="1.0" standalone="no"?>
<svg xmlns="http://www.w3.org/2000/svg" viewBox="0 0 240.792 30.544" width="240.792" height="30.544"><g fill="#ffb94c" color="#ffb94c" transform="translate(0, 0) scale(0.29)"><svg width="100.0" height="100.0" x="0.0" y="0.0" viewBox="0 0 100 100"><title></title><desc></desc><g><g><path fill="none" d="M9,81.5c0,1.1,0.9,2,2,2h78c1.1,0,2-0.9,2-2V28.6H9V81.5z M41.1,35.7l24.7,22.9l-11.1-0.3L60.3,71    c0.7,1.7-0.1,3.8-1.8,4.5s-3.7-0.1-4.5-1.8l-5.5-12.6l-7.6,8.3L41.1,35.7z"></path><path fill="currentColor" d="M13.8,18.7c-1.2,0-2.1,0.9-2.1,2.1s1,2.1,2.1,2.1c1.2,0,2.1-0.9,2.1-2.1S15,18.7,13.8,18.7z"></path><path fill="currentColor" d="M19.6,18.7c-1.2,0-2.1,0.9-2.1,2.1s0.9,2.1,2.1,2.1c1.2,0,2.1-0.9,2.1-2.1S20.8,18.7,19.6,18.7z"></path><path fill="currentColor" d="M54,73.7c0.8,1.7,2.8,2.5,4.5,1.8s2.5-2.8,1.8-4.5l-5.6-12.7l11.1,0.3L41.1,35.7l-0.2,33.7l7.6-8.3    L54,73.7z"></path><path fill="currentColor" d="M89,12.5H11c-3.3,0-6,2.7-6,6v63c0,3.3,2.7,6,6,6h78c3.3,0,6-2.7,6-6v-63C95,15.2,92.3,12.5,89,12.5z     M91,81.5c0,1.1-0.9,2-2,2H11c-1.1,0-2-0.9-2-2V28.6h82V81.5z M91,24.6H9v-6.1c0-1.1,0.9-2,2-2h78c1.1,0,2,0.9,2,2V24.6z"></path><path fill="currentColor" d="M25.4,18.7c-1.2,0-2.1,0.9-2.1,2.1s0.9,2.1,2.1,2.1c1.2,0,2.1-0.9,2.1-2.1S26.6,18.7,25.4,18.7z"></path><path fill="currentColor" d="M13.8,22.9c-1.1,0-2.1-0.9-2.1-2.1s0.9-2.1,2.1-2.1s2.1,0.9,2.1,2.1S15,22.9,13.8,22.9z M19.6,22.9    c-1.2,0-2.1-0.9-2.1-2.1s0.9-2.1,2.1-2.1c1.2,0,2.1,0.9,2.1,2.1S20.8,22.9,19.6,22.9z M25.4,22.9c-1.2,0-2.1-0.9-2.1-2.1    s0.9-2.1,2.1-2.1c1.2,0,2.1,0.9,2.1,2.1S26.6,22.9,25.4,22.9z"></path></g></g></svg></g><line x1="41" y1="1" x2="41" y2="28" stroke="#ffb94c" stroke-linecap="round"></line><path fill="#ffb94c" fill-rule="nonzero" d="M11.09 1.13L11.09 1.13Q11.66 1.13 11.83 1.97L11.83 1.97Q11.95 5.88 11.95 10.50Q11.95 15.12 11.90 15.84Q11.86 16.56 11.59 16.85Q11.33 17.14 10.63 17.14L10.63 17.14Q10.01 17.14 10.01 16.37L10.01 16.37L10.01 10.94Q10.01 9.62 9.96 8.23Q9.91 6.84 9.91 6.48L9.91 6.48Q9.10 7.87 7.75 8.77Q6.41 9.67 4.75 9.67Q3.10 9.67 1.97 8.30L1.97 8.30Q1.92 9.77 1.92 11.77Q1.92 13.78 1.94 15.98L1.94 15.98Q1.94 16.58 1.55 16.86Q1.15 17.14 0.65 17.14L0.65 17.14Q0 17.14 0 16.34L0 16.34Q0.02 14.18 0.02 9.50L0.02 9.50L0.02 2.69Q0.02 2.28 0.30 1.90Q0.58 1.51 0.95 1.51Q1.32 1.51 1.63 1.72Q1.94 1.92 1.97 2.33L1.97 2.33Q2.06 4.99 2.83 6.29Q3.60 7.58 4.66 7.58Q5.71 7.58 6.47 7.24Q7.22 6.89 7.72 6.43Q8.21 5.98 8.66 5.14L8.66 5.14Q9.31 3.94 9.91 2.18L9.91 2.18Q10.27 1.13 11.09 1.13ZM20.66 5.90L20.66 5.90Q21.72 5.90 21.72 7.70L21.72 7.70Q21.72 7.90 21.72 8.11L21.72 8.11L21.67 9.79Q21.65 10.58 21.65 11.35L21.65 11.35L22.01 16.78Q22.01 17.38 20.78 17.38L20.78 17.38Q20.71 17.38 20.44 17.38Q20.16 17.38 20.05 17.16Q19.94 16.94 20.03 16.63Q20.11 16.32 19.97 15.94L19.97 15.94Q18.86 17.11 17.04 17.11L17.04 17.11Q13.66 17.11 13.66 11.88L13.66 11.88Q13.66 8.98 14.75 7.49Q15.84 6.00 17.88 6.00L17.88 6.00Q18.84 6.00 19.80 6.34L19.80 6.34Q20.11 5.90 20.66 5.90ZM18.17 8.09L18.17 8.09Q16.80 8.09 16.13 8.88Q15.46 9.67 15.46 11.78L15.46 11.78Q15.46 15.34 17.38 15.34L17.38 15.34Q17.88 15.34 18.49 14.88Q19.10 14.42 19.34 13.85L19.34 13.85Q19.80 12.55 19.80 11.02Q19.80 9.48 19.43 8.78Q19.06 8.09 18.17 8.09ZM23.78 8.95Q23.78 7.54 24.79 6.70Q25.80 5.86 27.13 5.86Q28.46 5.86 29.69 6.34Q30.91 6.82 30.91 7.61L30.91 7.61Q30.91 8.02 30.60 8.26Q30.29 8.50 30.06 8.50Q29.83 8.50 29.70 8.48Q29.57 8.47 28.74 8.04Q27.91 7.61 27.22 7.61Q26.52 7.61 26.03 7.96Q25.54 8.30 25.54 8.98Q25.54 9.65 26.10 10.03Q26.66 10.42 28.08 10.69Q29.50 10.97 30.25 11.47Q31.01 11.98 31.01 13.34L31.01 13.34Q31.01 15.34 29.96 16.16Q28.92 16.99 27.43 16.99Q25.94 16.99 24.90 16.58Q23.86 16.18 23.86 15.36L23.86 15.36Q23.86 14.42 24.79 14.42L24.79 14.42Q25.03 14.42 25.85 14.76Q26.66 15.10 27.47 15.10Q28.27 15.10 28.69 14.58Q29.11 14.06 29.11 13.39Q29.11 12.72 28.56 12.42Q28.01 12.12 26.88 11.93Q25.75 11.74 25.22 11.52L25.22 11.52Q23.78 10.94 23.78 8.95L23.78 8.95ZM33.07 14.66L33.07 14.66Q32.90 12.19 32.90 7.98Q32.90 3.77 33.02 2.52L33.02 2.52Q33.14 1.75 34.08 1.50Q35.02 1.25 36.55 1.25L36.55 1.25Q38.81 1.25 40.36 2.22Q41.90 3.19 41.90 5.09L41.90 5.09Q41.90 6.65 41.47 7.69Q41.04 8.74 40.39 9.24L40.39 9.24Q39.34 10.06 37.27 10.06L37.27 10.06Q36.38 10.06 34.94 9.82L34.94 9.82Q35.06 14.62 35.04 15.86Q35.02 17.11 34.20 17.11L34.20 17.11Q33.67 17.11 33.53 16.92Q33.38 16.73 33.34 16.64Q33.29 16.56 33.24 16.39Q33.19 16.22 33.17 16.12Q33.14 16.01 33.13 15.79Q33.12 15.58 33.10 15.46L33.10 15.46Q33.07 15.10 33.07 14.66ZM39.91 5.15Q39.91 4.18 38.86 3.61Q37.80 3.05 36.60 3.05Q35.40 3.05 34.92 3.26L34.92 3.26Q34.82 4.68 34.82 5.87Q34.82 7.06 34.92 8.02L34.92 8.02Q35.57 8.09 35.81 8.14L35.81 8.14Q36.43 8.21 36.88 8.21Q37.32 8.21 37.48 8.20Q37.63 8.18 38.08 8.12Q38.52 8.06 38.71 7.92Q38.90 7.78 39.19 7.54Q39.48 7.30 39.60 6.98L39.60 6.98Q39.91 6.12 39.91 5.15ZM47.26 13.61L47.26 13.61L47.28 16.08Q47.28 16.51 46.88 16.87Q46.49 17.23 46.10 17.23L46.10 17.23Q45.55 17.23 45.41 16.37L45.41 16.37Q45.38 16.18 45.22 12.85Q45.05 9.53 44.57 7.63L44.57 7.63Q44.35 6.72 44.35 6.55L44.35 6.55Q44.35 5.76 45.31 5.76L45.31 5.76Q45.72 5.76 45.96 6.07Q46.20 6.38 46.26 6.71Q46.32 7.03 46.37 7.58Q46.42 8.14 46.44 8.28L46.44 8.28Q46.94 7.08 47.95 6.48Q48.96 5.88 50.16 5.88L50.16 5.88Q52.13 5.88 52.13 6.89L52.13 6.89Q52.13 7.39 51.78 7.69Q51.43 7.99 50.98 7.99L50.98 7.99Q48.94 7.99 48.10 9.29Q47.26 10.58 47.26 13.61ZM60.10 5.90L60.10 5.90Q61.15 5.90 61.15 7.70L61.15 7.70Q61.15 7.90 61.15 8.11L61.15 8.11L61.10 9.79Q61.08 10.58 61.08 11.35L61.08 11.35L61.44 16.78Q61.44 17.38 60.22 17.38L60.22 17.38Q60.14 17.38 59.87 17.38Q59.59 17.38 59.48 17.16Q59.38 16.94 59.46 16.63Q59.54 16.32 59.40 15.94L59.40 15.94Q58.30 17.11 56.47 17.11L56.47 17.11Q53.09 17.11 53.09 11.88L53.09 11.88Q53.09 8.98 54.18 7.49Q55.27 6.00 57.31 6.00L57.31 6.00Q58.27 6.00 59.23 6.34L59.23 6.34Q59.54 5.90 60.10 5.90ZM57.60 8.09L57.60 8.09Q56.23 8.09 55.56 8.88Q54.89 9.67 54.89 11.78L54.89 11.78Q54.89 15.34 56.81 15.34L56.81 15.34Q57.31 15.34 57.92 14.88Q58.54 14.42 58.78 13.85L58.78 13.85Q59.23 12.55 59.23 11.02Q59.23 9.48 58.86 8.78Q58.49 8.09 57.60 8.09ZM62.47 11.50Q62.47 9.89 63.32 8.57Q64.18 7.25 65.50 6.59Q66.82 5.93 68.06 5.93Q69.31 5.93 70.07 6.23Q70.82 6.53 70.82 7.02Q70.82 7.51 70.55 8.00Q70.27 8.50 69.82 8.50L69.82 8.50Q69.65 8.50 68.89 8.22Q68.14 7.94 67.92 7.94L67.92 7.94Q66.53 7.94 65.54 8.96Q64.56 9.98 64.56 11.66Q64.56 13.34 65.10 14.17Q65.64 15.00 66.96 15.00L66.96 15.00Q67.49 15.00 68.77 14.39Q70.06 13.78 70.37 13.78Q70.68 13.78 70.87 13.97Q71.06 14.16 71.06 14.45L71.06 14.45Q71.06 15.02 70.33 15.66Q69.60 16.30 68.52 16.72Q67.44 17.14 66.58 17.14L66.58 17.14Q64.66 17.14 63.56 15.62Q62.47 14.11 62.47 11.50L62.47 11.50ZM72.72 5.90L72.72 5.90L73.92 5.93Q74.33 5.93 74.38 5.90L74.38 5.90L74.38 0.98Q74.40 0.58 74.78 0.29Q75.17 0 75.50 0Q75.84 0 76.04 0.22Q76.25 0.43 76.22 0.89Q76.20 1.34 76.20 5.88L76.20 5.88L79.01 5.78Q79.73 5.78 79.73 6.62L79.73 6.62Q79.73 7.25 79.36 7.56Q78.98 7.87 78.56 7.90Q78.14 7.92 77.74 7.92L77.74 7.92L76.27 7.90Q76.27 8.88 76.48 11.78Q76.68 14.69 76.80 15.54Q76.92 16.39 76.85 16.64Q76.78 16.90 76.58 16.99L76.58 16.99Q76.27 17.14 75.74 17.14Q75.22 17.14 75.12 16.56L75.12 16.56Q74.64 13.42 74.47 7.92L74.47 7.92Q74.26 7.94 72.82 7.94Q71.38 7.94 71.38 7.10L71.38 7.10Q71.38 5.90 72.72 5.90ZM81.96 1.94L81.96 1.94Q82.39 1.94 82.78 2.35Q83.16 2.76 83.16 3.20Q83.16 3.65 82.74 4.10Q82.32 4.56 81.86 4.56Q81.41 4.56 81.04 4.18Q80.66 3.79 80.66 3.19L80.66 3.19Q80.66 2.04 81.91 1.94L81.91 1.94Q81.94 1.94 81.96 1.94ZM82.97 9.14L82.97 14.52L82.99 16.20Q82.99 16.66 82.63 16.96Q82.27 17.26 81.86 17.26L81.86 17.26Q81.26 17.26 81.24 16.66L81.24 16.66Q80.93 9.00 80.93 8.18Q80.93 7.37 81.00 6.19L81.00 6.19Q81.05 5.76 81.55 5.76L81.55 5.76Q82.82 5.76 82.99 6.79L82.99 6.79Q83.06 7.32 83.06 7.63L83.06 7.63L82.97 9.14ZM85.42 11.50Q85.42 9.89 86.27 8.57Q87.12 7.25 88.44 6.59Q89.76 5.93 91.01 5.93Q92.26 5.93 93.01 6.23Q93.77 6.53 93.77 7.02Q93.77 7.51 93.49 8.00Q93.22 8.50 92.76 8.50L92.76 8.50Q92.59 8.50 91.84 8.22Q91.08 7.94 90.86 7.94L90.86 7.94Q89.47 7.94 88.49 8.96Q87.50 9.98 87.50 11.66Q87.50 13.34 88.04 14.17Q88.58 15.00 89.90 15.00L89.90 15.00Q90.43 15.00 91.72 14.39Q93.00 13.78 93.31 13.78Q93.62 13.78 93.82 13.97Q94.01 14.16 94.01 14.45L94.01 14.45Q94.01 15.02 93.28 15.66Q92.54 16.30 91.46 16.72Q90.38 17.14 89.52 17.14L89.52 17.14Q87.60 17.14 86.51 15.62Q85.42 14.11 85.42 11.50L85.42 11.50ZM101.76 5.90L101.76 5.90Q102.82 5.90 102.82 7.70L102.82 7.70Q102.82 7.90 102.82 8.11L102.82 8.11L102.77 9.79Q102.74 10.58 102.74 11.35L102.74 11.35L103.10 16.78Q103.10 17.38 101.88 17.38L101.88 17.38Q101.81 17.38 101.53 17.38Q101.26 17.38 101.15 17.16Q101.04 16.94 101.12 16.63Q101.21 16.32 101.06 15.94L101.06 15.94Q99.96 17.11 98.14 17.11L98.14 17.11Q94.75 17.11 94.75 11.88L94.75 11.88Q94.75 8.98 95.84 7.49Q96.94 6.00 98.98 6.00L98.98 6.00Q99.94 6.00 100.90 6.34L100.90 6.34Q101.21 5.90 101.76 5.90ZM99.26 8.09L99.26 8.09Q97.90 8.09 97.22 8.88Q96.55 9.67 96.55 11.78L96.55 11.78Q96.55 15.34 98.47 15.34L98.47 15.34Q98.98 15.34 99.59 14.88Q100.20 14.42 100.44 13.85L100.44 13.85Q100.90 12.55 100.90 11.02Q100.90 9.48 100.52 8.78Q100.15 8.09 99.26 8.09ZM104.88 8.95Q104.88 7.54 105.89 6.70Q106.90 5.86 108.23 5.86Q109.56 5.86 110.78 6.34Q112.01 6.82 112.01 7.61L112.01 7.61Q112.01 8.02 111.70 8.26Q111.38 8.50 111.16 8.50Q110.93 8.50 110.80 8.48Q110.66 8.47 109.84 8.04Q109.01 7.61 108.31 7.61Q107.62 7.61 107.12 7.96Q106.63 8.30 106.63 8.98Q106.63 9.65 107.20 10.03Q107.76 10.42 109.18 10.69Q110.59 10.97 111.35 11.47Q112.10 11.98 112.10 13.34L112.10 13.34Q112.10 15.34 111.06 16.16Q110.02 16.99 108.53 16.99Q107.04 16.99 106.00 16.58Q104.95 16.18 104.95 15.36L104.95 15.36Q104.95 14.42 105.89 14.42L105.89 14.42Q106.13 14.42 106.94 14.76Q107.76 15.10 108.56 15.10Q109.37 15.10 109.79 14.58Q110.21 14.06 110.21 13.39Q110.21 12.72 109.66 12.42Q109.10 12.12 107.98 11.93Q106.85 11.74 106.32 11.52L106.32 11.52Q104.88 10.94 104.88 8.95L104.88 8.95ZM114.22 12.38L114.12 8.86Q113.78 8.64 113.78 8.23Q113.78 7.82 114.05 7.49L114.05 7.49Q113.95 5.09 113.95 2.42L113.95 2.42Q114.10 1.85 114.40 1.58Q114.70 1.32 115.27 1.25L115.27 1.25Q118.44 1.39 122.14 1.39L122.14 1.39Q123.05 1.58 123.05 2.18L123.05 2.18Q123.05 3.19 121.08 3.36L121.08 3.36Q120.55 3.38 119.93 3.38L119.93 3.38L118.37 3.38Q117.91 3.38 115.85 3.19L115.85 3.19Q115.85 6.19 115.94 7.32L115.94 7.32Q117.22 7.34 120.84 7.34L120.84 7.34Q121.70 7.51 121.70 8.12Q121.70 8.74 121.01 9.07L121.01 9.07Q120.94 9.12 120.74 9.17L120.74 9.17L116.59 9.10Q116.21 9.10 115.97 9.14L115.97 9.14L116.06 13.27Q116.06 14.66 115.99 15.26L115.99 15.26L121.56 15.19Q122.33 15.31 122.33 15.84L122.33 15.84Q122.33 16.20 122.00 16.56Q121.68 16.92 121.25 17.02L121.25 17.02L115.10 17.11Q114.55 17.11 114.34 16.91Q114.12 16.70 114.12 16.22L114.12 16.22Q114.22 15.55 114.22 14.06L114.22 14.06L114.22 12.38ZM126.07 2.06L126.07 2.06Q126.50 2.06 126.89 2.47Q127.27 2.88 127.27 3.32Q127.27 3.77 126.85 4.22Q126.43 4.68 125.98 4.68Q125.52 4.68 125.15 4.30Q124.78 3.91 124.78 3.31L124.78 3.31Q124.78 2.16 126.02 2.06L126.02 2.06Q126.05 2.06 126.07 2.06ZM125.30 6.77Q125.26 6.38 125.57 6.13Q125.88 5.88 126.50 5.88Q127.13 5.88 127.20 6.48L127.20 6.48Q127.54 9.43 127.54 12.07Q127.54 14.71 127.37 17.36Q127.20 20.02 126.60 21.46L126.60 21.46Q125.78 23.35 123.65 23.35L123.65 23.35Q122.57 23.35 121.78 22.68Q120.98 22.01 120.98 21.07L120.98 21.07Q120.98 20.57 121.34 20.30Q121.70 20.04 122.14 20.04Q122.57 20.04 122.78 20.26Q123.00 20.47 123.07 20.74L123.07 20.74Q123.31 21.43 123.90 21.43Q124.49 21.43 124.91 20.50Q125.33 19.56 125.46 17.95Q125.59 16.34 125.59 14.54L125.59 14.54Q125.59 8.90 125.30 6.77L125.30 6.77ZM133.42 6.00L133.42 6.00Q134.69 6.00 135.84 6.74Q136.99 7.49 136.99 8.58Q136.99 9.67 136.06 10.69Q135.12 11.71 133.56 11.93L133.56 11.93Q132.89 12.02 131.54 12.02L131.54 12.02Q131.81 14.06 132.58 14.71L132.58 14.71Q132.82 14.98 133.22 14.98L133.22 14.98Q134.71 14.98 135.72 14.03Q136.73 13.08 137.16 13.08L137.16 13.08Q137.35 13.08 137.74 13.44Q138.12 13.80 138.12 14.11L138.12 14.11Q138.12 14.74 136.61 15.91L136.61 15.91Q135.94 16.46 134.99 16.84Q134.04 17.21 133.22 17.21L133.22 17.21Q131.14 17.21 130.15 14.52L130.15 14.52Q129.53 12.86 129.53 10.87Q129.53 8.88 130.46 7.44Q131.40 6.00 133.42 6.00ZM133.54 7.66L133.54 7.66Q132.62 7.66 131.98 8.69L131.98 8.69Q131.74 9.05 131.52 10.32L131.52 10.32Q134.88 10.32 134.88 8.66L134.88 8.66Q134.88 7.66 133.54 7.66ZM140.88 17.14L140.88 17.14Q140.26 17.14 140.14 16.44L140.14 16.44Q140.14 11.59 139.56 7.80L139.56 7.80Q139.56 7.32 139.91 6.94Q140.26 6.55 140.70 6.55Q141.14 6.55 141.36 7.06L141.36 7.06Q142.25 5.88 143.74 5.88L143.74 5.88Q145.63 5.88 146.66 7.70L146.66 7.70Q147.86 5.98 149.84 5.98Q151.82 5.98 152.81 7.56L152.81 7.56Q153.46 8.54 153.72 10.15Q153.98 11.76 153.98 14.71L153.98 14.71Q153.98 15.86 153.74 16.50Q153.50 17.14 152.74 17.14L152.74 17.14Q152.11 17.14 152.11 16.34L152.11 16.34L152.18 13.34Q152.18 7.94 149.38 7.94L149.38 7.94Q148.49 7.94 148.13 8.57L148.13 8.57Q147.72 9.31 147.65 10.13L147.65 10.13Q147.55 11.57 147.55 12.74L147.55 12.74L147.55 16.22Q147.55 16.61 147.17 16.87Q146.78 17.14 146.38 17.14L146.38 17.14Q145.85 17.14 145.70 16.44L145.70 16.44L145.78 11.47Q145.78 8.83 144.89 8.18L144.89 8.18Q144.46 7.87 143.58 7.87Q142.70 7.87 142.28 8.52Q141.86 9.17 141.86 10.61L141.86 10.61L142.01 15.07Q142.01 17.14 140.88 17.14ZM159.62 17.09L159.62 17.09Q158.81 17.09 158.11 16.54L158.11 16.54Q158.11 16.54 157.80 16.27L157.80 16.27L157.80 23.47Q157.66 23.95 157.30 24.28Q156.94 24.60 156.53 24.60L156.53 24.60Q155.90 24.60 155.90 23.76L155.90 23.76L155.90 7.03Q156.05 6.41 156.25 6.14Q156.46 5.88 156.90 5.88Q157.34 5.88 157.48 6.08Q157.61 6.29 157.80 7.20L157.80 7.20Q157.90 6.72 158.57 6.31Q159.24 5.90 160.37 5.90L160.37 5.90Q162.82 5.90 163.85 7.68Q164.88 9.46 164.88 11.87Q164.88 14.28 163.48 15.68Q162.07 17.09 159.62 17.09ZM157.80 9.89L157.80 9.89L157.80 14.35Q157.94 14.42 158.14 14.59L158.14 14.59Q158.83 15.22 159.65 15.22L159.65 15.22Q162.96 15.22 162.96 11.81L162.96 11.81Q162.96 8.90 161.47 8.14L161.47 8.14Q160.85 7.80 159.94 7.80L159.94 7.80Q159.05 7.92 158.42 8.58Q157.80 9.24 157.80 9.89ZM166.04 1.57Q166.10 0.67 166.33 0.40Q166.56 0.12 167.06 0.12L167.06 0.12Q168.10 0.12 168.10 0.96L168.10 0.96Q168.10 1.61 167.99 4.34Q167.88 7.08 167.88 9.24Q167.88 11.40 168.05 12.72L168.05 12.72Q168.34 15.02 168.86 15.02Q169.39 15.02 169.66 14.28L169.66 14.28Q169.78 13.99 170.04 13.76Q170.30 13.54 170.71 13.54L170.71 13.54Q171.55 13.54 171.55 14.95L171.55 14.95Q171.55 15.72 170.72 16.48Q169.90 17.23 169.08 17.23Q168.26 17.23 167.77 16.96Q167.28 16.68 166.98 16.13Q166.68 15.58 166.50 15.06Q166.32 14.54 166.25 13.80L166.25 13.80Q166.10 12.60 166.04 9.95Q165.98 7.30 165.98 4.88Q165.98 2.47 166.04 1.57ZM176.74 5.93L176.74 5.93Q178.46 5.93 179.58 7.58Q180.70 9.24 180.70 11.56Q180.70 13.87 179.56 15.50Q178.42 17.14 176.53 17.14Q174.65 17.14 173.50 15.47Q172.34 13.80 172.34 11.76L172.34 11.76Q172.34 9.14 173.40 7.58L173.40 7.58Q174.53 5.93 176.74 5.93ZM176.45 7.90L176.45 7.90Q175.44 7.90 174.79 8.95Q174.14 10.01 174.14 11.18L174.14 11.18Q174.14 13.01 174.86 13.97Q175.58 14.93 176.50 14.93L176.50 14.93Q178.13 14.93 178.58 13.51L178.58 13.51Q178.78 12.84 178.78 11.83L178.78 11.83Q178.78 7.90 176.45 7.90ZM182.57 8.95Q182.57 7.54 183.58 6.70Q184.58 5.86 185.92 5.86Q187.25 5.86 188.47 6.34Q189.70 6.82 189.70 7.61L189.70 7.61Q189.70 8.02 189.38 8.26Q189.07 8.50 188.84 8.50Q188.62 8.50 188.48 8.48Q188.35 8.47 187.52 8.04Q186.70 7.61 186.00 7.61Q185.30 7.61 184.81 7.96Q184.32 8.30 184.32 8.98Q184.32 9.65 184.88 10.03Q185.45 10.42 186.86 10.69Q188.28 10.97 189.04 11.47Q189.79 11.98 189.79 13.34L189.79 13.34Q189.79 15.34 188.75 16.16Q187.70 16.99 186.22 16.99Q184.73 16.99 183.68 16.58Q182.64 16.18 182.64 15.36L182.64 15.36Q182.64 14.42 183.58 14.42L183.58 14.42Q183.82 14.42 184.63 14.76Q185.45 15.10 186.25 15.10Q187.06 15.10 187.48 14.58Q187.90 14.06 187.90 13.39Q187.90 12.72 187.34 12.42Q186.79 12.12 185.66 11.93Q184.54 11.74 184.01 11.52L184.01 11.52Q182.57 10.94 182.57 8.95L182.57 8.95Z" transform="translate(51, 5.944)"></path></svg>